<?xml version="1.0" standalone="no"?><svg xmlns="http://www.w3.org/2000/svg" viewBox="0 0 1440 320"><path fill="#0099ff" fill-opacity="1" d="M0,160L8,138.7C16,117,32,75,48,74.7C64,75,80,117,96,160C112,203,128,245,144,224C160,203,176,117,192,112C208,107,224,181,240,202.7C256,224,272,192,288,186.7C304,181,320,203,336,192C352,181,368,139,384,122.7C400,107,416,117,432,128C448,139,464,149,480,128C496,107,512,53,528,69.3C544,85,560,171,576,176C592,181,608,107,624,90.7C640,75,656,117,672,149.3C688,181,704,203,720,181.3C736,160,752,96,768,64C784,32,800,32,816,74.7C832,117,848,203,864,213.3C880,224,896,160,912,154.7C928,149,944,203,960,240C976,277,992,299,1008,272C1024,245,1040,171,1056,128C1072,85,1088,75,1104,96C1120,117,1136,171,1152,186.7C1168,203,1184,181,1200,149.3C1216,117,1232,75,1248,48C1264,21,1280,11,1296,53.3C1312,96,1328,192,1344,208C1360,224,1376,160,1392,165.3C1408,171,1424,245,1432,282.7L1440,320L1440,320L1432,320C1424,320,1408,320,1392,320C1376,320,1360,320,1344,320C1328,320,1312,320,1296,320C1280,320,1264,320,1248,320C1232,320,1216,320,1200,320C1184,320,1168,320,1152,320C1136,320,1120,320,1104,320C1088,320,1072,320,1056,320C1040,320,1024,320,1008,320C992,320,976,320,960,320C944,320,928,320,912,320C896,320,880,320,864,320C848,320,832,320,816,320C800,320,784,320,768,320C752,320,736,320,720,320C704,320,688,320,672,320C656,320,640,320,624,320C608,320,592,320,576,320C560,320,544,320,528,320C512,320,496,320,480,320C464,320,448,320,432,320C416,320,400,320,384,320C368,320,352,320,336,320C320,320,304,320,288,320C272,320,256,320,240,320C224,320,208,320,192,320C176,320,160,320,144,320C128,320,112,320,96,320C80,320,64,320,48,320C32,320,16,320,8,320L0,320Z"></path></svg>